<svg width="164" height="164" viewBox="0 0 164 164" fill="none" xmlns="http://www.w3.org/2000/svg">
<path d="M82.2807 3.19007C71.5986 3.2462 61.0394 5.47335 51.2446 9.73624C41.4498 13.9991 32.6239 20.2088 25.303 27.9879C17.9821 35.767 12.3191 44.9533 8.65794 54.9885C4.99683 65.0238 3.41405 75.6986 4.00577 86.3645C4.59749 97.0303 7.35135 107.465 12.1 117.033C16.8487 126.602 23.4931 135.105 31.6296 142.027C39.7661 148.949 49.2247 154.144 59.431 157.297C69.6372 160.45 80.378 161.496 91.0007 160.37C95.5865 159.871 100.12 158.974 104.551 157.69C110.278 156.03 115.797 153.722 121.001 150.81C124.708 148.733 128.242 146.362 131.571 143.72C144.404 133.538 153.746 119.609 158.295 103.871C162.844 88.1324 162.374 71.3677 156.952 55.9086C151.53 40.4495 141.425 27.0647 128.041 17.6161C114.658 8.16755 98.663 3.12505 82.2807 3.19007Z" fill="#FCEFF2"/>
<path d="M121.431 132.21C129.881 132.21 136.731 125.619 136.731 117.49C136.731 109.36 129.881 102.77 121.431 102.77C112.981 102.77 106.131 109.36 106.131 117.49C106.131 125.619 112.981 132.21 121.431 132.21Z" fill="#EB92A7"/>
<path d="M136.73 132.21C140.955 132.21 144.38 128.915 144.38 124.85C144.38 120.785 140.955 117.49 136.73 117.49C132.505 117.49 129.08 120.785 129.08 124.85C129.08 128.915 132.505 132.21 136.73 132.21Z" fill="#EB92A7"/>
<path d="M106.13 132.2C111.322 132.2 115.53 128.153 115.53 123.16C115.53 118.167 111.322 114.12 106.13 114.12C100.939 114.12 96.7305 118.167 96.7305 123.16C96.7305 128.153 100.939 132.2 106.13 132.2Z" fill="#A0E8CB"/>
<path d="M163.37 133.359H79.4902C79.4902 133.359 112.79 120.149 163.37 133.359Z" fill="#EB92A7"/>
<path d="M52.0802 132C62.0711 132 70.1702 124.205 70.1702 114.59C70.1702 104.974 62.0711 97.1797 52.0802 97.1797C42.0894 97.1797 33.9902 104.974 33.9902 114.59C33.9902 124.205 42.0894 132 52.0802 132Z" fill="#EB92A7"/>
<path d="M70.1711 131.99C75.1693 131.99 79.2211 128.095 79.2211 123.29C79.2211 118.485 75.1693 114.59 70.1711 114.59C65.1729 114.59 61.1211 118.485 61.1211 123.29C61.1211 128.095 65.1729 131.99 70.1711 131.99Z" fill="#A0E8CB"/>
<path d="M33.9889 131.989C40.1248 131.989 45.0989 127.203 45.0989 121.299C45.0989 115.395 40.1248 110.609 33.9889 110.609C27.853 110.609 22.8789 115.395 22.8789 121.299C22.8789 127.203 27.853 131.989 33.9889 131.989Z" fill="#EB92A7"/>
<path d="M101.681 133.36H2.4707C2.4707 133.36 41.8507 117.74 101.681 133.36Z" fill="#EB92A7"/>
<path d="M81.9999 137.91C112.878 137.91 137.91 112.878 137.91 81.9999C137.91 51.1216 112.878 26.0898 81.9999 26.0898C51.1216 26.0898 26.0898 51.1216 26.0898 81.9999C26.0898 112.878 51.1216 137.91 81.9999 137.91Z" fill="#DB284E"/>
<g opacity="0.2">
<path opacity="0.2" d="M120.55 41.5195C127.582 53.1065 130.166 66.8536 127.82 80.2031C125.475 93.5527 118.359 105.596 107.798 114.091C97.2374 122.587 83.9497 126.957 70.4076 126.388C56.8655 125.82 43.9911 120.351 34.1797 111C38.3068 117.815 43.8428 123.669 50.4169 128.171C56.991 132.672 64.4512 135.716 72.2977 137.1C80.1442 138.483 88.1958 138.173 95.9128 136.191C103.63 134.209 110.834 130.601 117.043 125.607C123.252 120.614 128.322 114.352 131.913 107.239C135.504 100.127 137.534 92.3295 137.866 84.3689C138.198 76.4083 136.825 68.4687 133.838 61.0821C130.852 53.6955 126.321 47.0325 120.55 41.5395V41.5195Z" fill="#727272"/>
</g>
<path d="M102.199 63.1904L61.7988 100.81" stroke="white" stroke-width="12" stroke-linecap="round" stroke-linejoin="round"/>
<path d="M61.7988 63.1904L102.199 100.81" stroke="white" stroke-width="12" stroke-linecap="round" stroke-linejoin="round"/>
<path d="M49.6493 135.87C52.8912 135.87 55.5193 133.099 55.5193 129.68C55.5193 126.262 52.8912 123.49 49.6493 123.49C46.4074 123.49 43.7793 126.262 43.7793 129.68C43.7793 133.099 46.4074 135.87 49.6493 135.87Z" fill="#F3BDCA"/>
<path d="M43.7807 135.88C45.7468 135.88 47.3407 134.461 47.3407 132.71C47.3407 130.959 45.7468 129.54 43.7807 129.54C41.8146 129.54 40.2207 130.959 40.2207 132.71C40.2207 134.461 41.8146 135.88 43.7807 135.88Z" fill="#F3BDCA"/>
<path d="M65.4997 136.28H33.6797C33.6797 136.28 46.3097 131.65 65.4997 136.28Z" fill="#F3BDCA"/>
<path d="M56.4013 135.63C59.5051 135.63 62.0213 133.396 62.0213 130.64C62.0213 127.884 59.5051 125.65 56.4013 125.65C53.2974 125.65 50.7812 127.884 50.7812 130.64C50.7812 133.396 53.2974 135.63 56.4013 135.63Z" fill="#F3BDCA"/>
<path d="M62.0209 135.63C63.5729 135.63 64.8309 134.516 64.8309 133.14C64.8309 131.765 63.5729 130.65 62.0209 130.65C60.469 130.65 59.2109 131.765 59.2109 133.14C59.2109 134.516 60.469 135.63 62.0209 135.63Z" fill="#F3BDCA"/>
<path d="M50.7898 135.63C52.6952 135.63 54.2398 134.26 54.2398 132.57C54.2398 130.88 52.6952 129.51 50.7898 129.51C48.8845 129.51 47.3398 130.88 47.3398 132.57C47.3398 134.26 48.8845 135.63 50.7898 135.63Z" fill="#F3BDCA"/>
<path d="M71.4797 136.17H40.6797C40.6797 136.17 52.9097 131.69 71.4797 136.17Z" fill="#F3BDCA"/>
<path d="M107.401 135.97C110.129 135.97 112.341 133.83 112.341 131.19C112.341 128.55 110.129 126.41 107.401 126.41C104.673 126.41 102.461 128.55 102.461 131.19C102.461 133.83 104.673 135.97 107.401 135.97Z" fill="#F3BDCA"/>
<path d="M102.45 135.96C103.847 135.96 104.98 134.868 104.98 133.52C104.98 132.173 103.847 131.08 102.45 131.08C101.053 131.08 99.9199 132.173 99.9199 133.52C99.9199 134.868 101.053 135.96 102.45 135.96Z" fill="#F3BDCA"/>
<path d="M117.859 136.28H95.2793C95.2793 136.28 104.239 132.71 117.859 136.28Z" fill="#F3BDCA"/>
<path d="M114.08 135.979C116.278 135.979 118.06 134.256 118.06 132.129C118.06 130.003 116.278 128.279 114.08 128.279C111.882 128.279 110.1 130.003 110.1 132.129C110.1 134.256 111.882 135.979 114.08 135.979Z" fill="#F3BDCA"/>
<path d="M118.07 135.97C119.169 135.97 120.06 135.11 120.06 134.05C120.06 132.989 119.169 132.13 118.07 132.13C116.971 132.13 116.08 132.989 116.08 134.05C116.08 135.11 116.971 135.97 118.07 135.97Z" fill="#F3BDCA"/>
<path d="M110.1 135.97C111.453 135.97 112.55 134.913 112.55 133.61C112.55 132.307 111.453 131.25 110.1 131.25C108.747 131.25 107.65 132.307 107.65 133.61C107.65 134.913 108.747 135.97 110.1 135.97Z" fill="#F3BDCA"/>
<path d="M125 136.28H103.16C103.16 136.28 111.83 132.82 125 136.28Z" fill="#F3BDCA"/>
<path d="M20.1613 61.3304C25.3417 61.3304 29.5413 57.5964 29.5413 52.9904C29.5413 48.3843 25.3417 44.6504 20.1613 44.6504C14.9808 44.6504 10.7812 48.3843 10.7812 52.9904C10.7812 57.5964 14.9808 61.3304 20.1613 61.3304Z" fill="#F3BDCA"/>
<path d="M29.5396 61.3302C32.1298 61.3302 34.2296 59.4633 34.2296 57.1602C34.2296 54.8572 32.1298 52.9902 29.5396 52.9902C26.9494 52.9902 24.8496 54.8572 24.8496 57.1602C24.8496 59.4633 26.9494 61.3302 29.5396 61.3302Z" fill="#F3BDCA"/>
<path d="M10.7698 61.3201C13.9509 61.3201 16.5298 59.0278 16.5298 56.2001C16.5298 53.3724 13.9509 51.0801 10.7698 51.0801C7.58861 51.0801 5.00977 53.3724 5.00977 56.2001C5.00977 59.0278 7.58861 61.3201 10.7698 61.3201Z" fill="#F3BDCA"/>
<path d="M46.66 62.52H0C0 62.52 18.52 53.33 46.66 62.52Z" fill="#F3BDCA"/>
<path d="M135.221 35.4095C141.02 35.4095 145.721 31.2368 145.721 26.0895C145.721 20.9422 141.02 16.7695 135.221 16.7695C129.422 16.7695 124.721 20.9422 124.721 26.0895C124.721 31.2368 129.422 35.4095 135.221 35.4095Z" fill="#F3BDCA"/>
<path d="M124.73 35.4098C127.63 35.4098 129.98 33.3235 129.98 30.7498C129.98 28.1762 127.63 26.0898 124.73 26.0898C121.831 26.0898 119.48 28.1762 119.48 30.7498C119.48 33.3235 121.831 35.4098 124.73 35.4098Z" fill="#F3BDCA"/>
<path d="M145.72 35.42C149.282 35.42 152.17 32.8546 152.17 29.69C152.17 26.5254 149.282 23.96 145.72 23.96C142.157 23.96 139.27 26.5254 139.27 29.69C139.27 32.8546 142.157 35.42 145.72 35.42Z" fill="#F3BDCA"/>
<path d="M106.439 36.1394H163.999C163.999 36.1394 141.149 27.7794 106.439 36.1394Z" fill="#F3BDCA"/>
</svg>
